<svg width="100" height="84" viewBox="0 0 100 84" fill="none" xmlns="http://www.w3.org/2000/svg">
<path d="M39.7139 23.0587C44.5578 27.3107 45.2285 29.0412 44.9584 29.3749C44.7916 29.2398 44.1551 29.139 42.9443 29.816C41.4307 30.6624 40.2152 32.1642 39.6551 33.3679C38.8945 35.0029 39.1311 37.0865 39.4291 37.7419C38.5233 37.8374 36.7117 38.0282 34.0062 36.2526C31.4664 34.5859 13.8156 22.8106 6.85487 17.591C-0.105805 12.3714 -1.11948 4.92259 1.10899 2.1693C3.33747 -0.584 7.77024 0.457321 13.3729 3.39584C19.1893 6.44641 33.659 17.7437 39.7139 23.0587Z" fill="black"/>
<path d="M40.5132 32.8196L40.5957 32.8864C40.6313 32.7936 40.6712 32.6883 40.7158 32.5693C41.2877 31.0437 43.3455 30.0027 44.3029 29.6729L49.5592 33.9273C50.5604 34.7376 50.8425 35.2421 50.8584 35.3931L50.9539 36.2989C50.8545 36.0804 50.3841 35.672 49.2972 35.7865C47.9385 35.9297 46.2106 39.0881 46.1152 38.1824C46.0389 37.4577 45.6861 37.0065 45.5192 36.8714L40.5957 32.8864C40.1747 33.9832 40.3557 33.3288 40.5132 32.8196Z" fill="black"/>
<path d="M44.9951 40.5899C44.3944 40.1037 41.4711 38.29 40.0845 37.4439L39.9532 34.0234L45.412 38.0275L45.6029 39.839L45.277 40.8928C45.47 41.2093 45.2598 41.4188 45.0905 41.4957L45.277 40.8928C45.2208 40.8007 45.1305 40.6995 44.9951 40.5899Z" fill="black"/>
<path d="M47.4269 46.2866C47.6078 42.7874 46.5167 41.2691 45.9486 40.9474C45.8055 39.5887 47.2713 38.2895 48.0817 37.2883C48.7299 36.4874 49.7978 36.1917 50.2507 36.144L51.7525 37.3595C52.0028 37.5621 52.9445 39.9814 53.2902 41.0898C53.5668 41.9765 53.8826 45.9881 54.0059 47.8831L55.1987 59.2053C59.2708 59.4632 68.2897 60.0242 71.7889 60.205C75.2881 60.3859 78.5627 62.9258 79.7625 64.1731C83.831 68.0184 92.9285 76.5694 96.7712 80.011C101.575 84.3131 99.465 83.8485 98.5593 83.9439C97.8346 84.0202 91.6942 82.5302 88.7146 81.7756C83.5063 80.8742 71.6832 78.7617 66.0577 77.5227C59.0258 75.9739 57.8221 75.4139 56.1177 74.4486C54.4133 73.4834 52.2107 68.993 51.2306 67.1789C50.1668 65.21 49.6292 62.8448 49.0491 61.6848C48.433 58.0101 47.246 49.7858 47.4269 46.2866Z" fill="black"/>
</svg>
